<svg width="28" height="24" viewBox="0 0 28 24" fill="none" xmlns="http://www.w3.org/2000/svg">
<g clip-path="url(#clip0)">
<path fill-rule="evenodd" clip-rule="evenodd" d="M23.1625 4.27493C20.9722 1.98757 17.4845 1.78589 15.0665 3.80634L13.6186 5.01644L12.1708 3.80634C9.75277 1.78589 6.26504 1.98757 4.0748 4.27493C1.84409 6.60455 1.70879 10.2868 3.79958 12.6635C5.61861 14.7335 7.73831 17.0256 9.64638 18.7925C10.6027 19.6777 11.4793 20.4072 12.2205 20.9083C13.0208 21.4482 13.4683 21.5847 13.6186 21.5847C13.769 21.5847 14.2165 21.4482 15.0167 20.9083C15.758 20.4072 16.6346 19.6777 17.5909 18.7925C19.499 17.0256 21.6187 14.7335 23.4377 12.6635C25.5273 10.2868 25.3932 6.60455 23.1625 4.27493ZM13.621 1.91993C16.9607 -0.868614 21.7736 -0.590846 24.7977 2.56604C27.8587 5.76398 28.1131 10.9172 25.1411 14.2975C23.3036 16.388 21.1214 18.7514 19.1255 20.6004C18.1298 21.523 17.1538 22.3406 16.2715 22.9372C15.4492 23.4928 14.5021 24 13.6186 24C12.7352 24 11.7881 23.4928 10.9658 22.9372C10.0835 22.3406 9.1075 21.523 8.11183 20.6004C6.11587 18.7514 3.93372 16.388 2.09619 14.2975C-0.87578 10.9172 -0.62137 5.76398 2.43964 2.56604C5.46365 -0.590846 10.2766 -0.868614 13.6163 1.91993L13.6186 1.92234L13.621 1.91993Z" fill="#2D3092"/>
</g>
<defs>
<clipPath id="clip0">
<rect width="27.2373" height="24" fill="white"/>
</clipPath>
</defs>
</svg>
