<?xml version="1.0" encoding="UTF-8"?>
<svg width="520px" height="70px" viewBox="0 0 520 70" version="1.1" xmlns="http://www.w3.org/2000/svg" xmlns:xlink="http://www.w3.org/1999/xlink">
    <title>ZM_logo_august2021_whiteinside(RGB)</title>
    <g id="Page-1" stroke="none" stroke-width="1" fill="none" fill-rule="evenodd">
        <g id="Artboard-Copy" transform="translate(-87.000000, -121.000000)">
            <g id="ZM_logo_august2021_whiteinside(RGB)" transform="translate(87.000000, 121.000000)">
                <path d="M5.71131498,0 C30.551682,0 39.4568807,0 64.2972477,0 C67.435474,0 70,2.56452599 70,5.70275229 L70,64.2972477 C70,67.435474 67.435474,70 64.2972477,70 C39.2342508,70 30.7657492,70 5.69847095,70 C2.56452599,70 0,67.435474 0,64.2972477 L0,5.70275229 C0,2.5559633 2.56880734,0 5.71131498,0 Z" id="Path" fill="#FEFEFE"></path>
                <path d="M5.71141575,0 L29.657404,0 L29.657404,8.82813456 L15.7342226,8.82813456 C14.8993454,8.82813456 14.2271623,9.50030581 14.2271623,10.3351682 L14.2271623,18.0159021 C14.2271623,18.8550459 14.8993454,19.5229358 15.7342226,19.5229358 L40.7163147,19.5229358 L13.6577333,52.2923547 C13.4265366,52.5749235 13.3152196,52.9088685 13.3023754,53.2470948 L13.3023754,59.6648318 C13.3023754,60.4996942 13.9745585,61.1718654 14.813717,61.1718654 L29.6488411,61.1718654 L29.6488411,70 L5.69857149,70 C2.56457124,70 0,67.435474 0,64.2972477 L0,5.70275229 C0,2.56452599 2.56457124,0 5.69857149,0 L5.71141575,0 Z M93.4291713,61.1932722 L135.365691,61.1932722 L135.365691,55.8844037 L101.426866,55.8844037 L135.365691,12.8269113 L135.365691,8.86666667 L94.5466222,8.86666667 L94.5466222,14.1755352 L127.290931,14.1755352 L93.4291713,57.2330275 L93.4291713,61.1932722 Z M166.161953,62.0880734 C182.088839,62.0880734 192.925116,49.458104 192.925116,35.0299694 C192.925116,20.4519878 182.234408,7.97186544 166.311803,7.97186544 C150.389198,7.97186544 139.552921,20.6018349 139.552921,35.0299694 C139.552921,49.6079511 150.243629,62.0880734 166.161953,62.0880734 Z M166.311803,56.6336391 C154.349512,56.6336391 145.679634,46.9149847 145.679634,35.0299694 C145.679634,22.995107 154.203944,13.4262997 166.161953,13.4262997 C178.124244,13.4262997 186.798403,23.1449541 186.798403,35.0299694 C186.798403,47.0648318 178.274093,56.6336391 166.311803,56.6336391 L166.311803,56.6336391 Z M225.750772,62.0880734 C241.673377,62.0880734 252.513935,49.458104 252.513935,35.0299694 C252.513935,20.4519878 241.823227,7.97186544 225.900622,7.97186544 C209.978017,7.97186544 199.137458,20.6018349 199.137458,35.0299694 C199.137458,49.6079511 209.828167,62.0880734 225.750772,62.0880734 Z M225.900622,56.6336391 C213.942612,56.6336391 205.268453,46.9149847 205.268453,35.0299694 C205.268453,22.995107 213.792763,13.4262997 225.750772,13.4262997 C237.713062,13.4262997 246.38294,23.1449541 246.38294,35.0299694 C246.38294,47.0648318 237.862912,56.6336391 225.900622,56.6336391 L225.900622,56.6336391 Z M260.2419,61.1932722 L278.40797,61.1932722 C294.852908,61.1932722 306.2158,49.7577982 306.2158,35.0299694 C306.2158,20.1522936 294.852908,8.86666667 278.40797,8.86666667 L260.2419,8.86666667 L260.2419,61.1932722 Z M266.14598,55.7345566 L266.14598,14.3253823 L278.40797,14.3253823 C291.637561,14.3253823 300.084805,23.4446483 300.084805,35.0299694 C300.084805,46.7651376 291.637561,55.7345566 278.40797,55.7345566 L266.14598,55.7345566 Z M316.405582,61.1932722 L327.691408,61.1932722 L327.691408,27.2550459 L342.269647,49.3810398 L342.569347,49.3810398 L357.293154,27.0324159 L357.293154,61.1932722 L368.733111,61.1932722 L368.733111,8.86666667 L356.325553,8.86666667 L342.569347,30.9926606 L328.813141,8.86666667 L316.405582,8.86666667 L316.405582,61.1932722 Z M375.570541,61.1932722 L387.305916,61.1932722 L392.092545,49.458104 L414.218929,49.458104 L419.005558,61.1932722 L431.040632,61.1932722 L408.610267,8.4941896 L397.996624,8.4941896 L375.570541,61.1932722 L375.570541,61.1932722 Z M396.202709,39.2899083 L403.155737,22.3229358 L410.108765,39.2899083 L396.202709,39.2899083 Z M437.214442,61.1932722 L474.818163,61.1932722 L474.818163,50.7296636 L448.727183,50.7296636 L448.727183,8.86666667 L437.214442,8.86666667 L437.214442,61.1932722 L437.214442,61.1932722 Z M482.396278,61.1932722 L520,61.1932722 L520,50.7296636 L493.90902,50.7296636 L493.90902,8.86666667 L482.396278,8.86666667 L482.396278,61.1932722 L482.396278,61.1932722 Z M40.3523939,8.82813456 L40.3523939,0 L64.2983821,0 C67.4366638,0 70.001235,2.56452599 70.001235,5.70275229 L70.001235,64.2972477 C70.001235,67.435474 67.4366638,70 64.2983821,70 L40.3523939,70 L40.3523939,61.1718654 L55.187518,61.1718654 C56.0223951,61.1718654 56.6945782,60.4996942 56.6945782,59.6648318 L56.6945782,51.9840979 C56.6945782,51.1449541 56.0223951,50.4727829 55.187518,50.4727829 L29.2849203,50.4727829 L56.3435017,17.7076453 C56.5746984,17.4250765 56.681734,17.0911315 56.6945782,16.7529052 L56.6945782,10.3351682 C56.6945782,9.50030581 56.0223951,8.82813456 55.187518,8.82813456 L40.3523939,8.82813456 L40.3523939,8.82813456 Z" id="Shape" fill="#303493"></path>
            </g>
        </g>
    </g>
</svg>